<svg version="1" xmlns="http://www.w3.org/2000/svg" width="682.667" height="682.667" viewBox="0 0 512.000000 512.000000"><path d="M15 30.6c0 .5.5 1.5 1.1 2.1.9.9.7 1-1 .6-1.6-.4-2.1-.1-2.1 1.6 0 2.7 2.1 2.7 3.8 0 1.2-1.8 1.1-2.4-.2-3.7-.9-.9-1.6-1.2-1.6-.6zM1.6 40.9c-.4.7-.5 1.5-.2 1.8.9.9 1.9-.4 1.4-1.8-.4-1.1-.6-1.1-1.2 0zM1.3 46.4c-.6.8-1 1.6-.7 1.9.9.9 4.5-.5 4.1-1.6-.5-1.6-2.1-1.8-3.4-.3zM22 47c0 .5.5 1 1 1 .6 0 1-.5 1-1 0-.6-.4-1-1-1-.5 0-1 .4-1 1zM42 49.1c0 .5.5.7 1 .4.6-.3 1-.8 1-1.1 0-.2-.4-.4-1-.4-.5 0-1 .5-1 1.1zM21.8 59.7c-1.8 2.2-2.9 6.1-1.8 6.5.5.2 1.2 1.5 1.5 3 .6 2.2.4 2.8-1 2.8-1.2 0-1.5.5-1.1 1.6.3.9.6 2 .6 2.5s.5.9 1 .9c.6 0 1-.6 1-1.4 0-.8.7-1.6 1.5-2 1.7-.6 2-3.6.4-3.6-.8 0-.8-.4 0-1.4.9-1 .9-2-.1-4.1-1-2.3-1-2.8.5-3.7 1-.5 1.5-1.3 1.2-1.9-.9-1.4-2-1.1-3.7.8zM2 62c0 .5.5 1 1 1 .6 0 1-.5 1-1 0-.6-.4-1-1-1-.5 0-1 .4-1 1zM2.2 65.6C1 66.4 0 67.8 0 68.7c0 1.5.2 1.4 1.8 0 1-1 2.8-1.7 4-1.7 1.5 0 2-.5 1.6-1.5-.8-1.9-2.4-1.9-5.2.1zM9.2 66.9c.5 4.3 2.1 5 3.6 1.6 1.5-3.2 1.5-4.5.2-2.5-.9 1.3-1.2 1.2-2.6-.5-1.5-1.9-1.5-1.8-1.2 1.4zM37.8 70.9c-4 3.8-3.5 4.7.7 1.4 1.9-1.5 3.5-3.1 3.5-3.6 0-1.3-1.4-.6-4.2 2.2zM28.3 71.5c-1.9 2-1.7 4.1.1 2.6 1.1-1 1.6-.8 2.1.8.7 2.3 2 2.7 3 1.1.3-.6.2-1-.4-1-.6 0-1.3-1.1-1.7-2.5-.7-2.8-1.4-3-3.1-1zM53.5 77c-.3.6.1 1.3 1 1.6 2.1.9 2.6.2 1-1.3-.9-.8-1.6-.9-2-.3zM7.1 80.4c-.9 1-2.2 1.3-4.2.9-3.2-.6-4.1 1.5-1.4 3.7 2.1 1.8 4.8.8 6.3-2.3 1.6-3.2 1.1-4.5-.7-2.3zM7 83c0 .5-.5 1-1.1 1-.5 0-.7-.5-.4-1 .3-.6.8-1 1.1-1 .2 0 .4.4.4 1zM10.6 80.8c-.2.4-.1 1.4.5 2.2.7 1.2.9 1 .9-.8 0-2.3-.5-2.8-1.4-1.4zM31.7 81.7c-.4.3-.7 1.1-.7 1.7 0 .6.5.5 1.2-.2.6-.6.9-1.4.7-1.7-.3-.3-.9-.2-1.2.2zM250.8 88c-6.5.8-9.3 1.5-23.8 6.1-7.9 2.5-11.7 4.2-19.1 8-3.1 1.6-6.3 2.9-7.2 2.9-.8 0-2 .7-2.7 1.5-.7.8-1.6 1.2-2.1.9-.5-.3-.9-.1-.9.5s-1.7 1.9-3.7 3c-4.1 2.1-6.5 4.2-10.2 9-1.3 1.7-2.7 2.9-3.1 2.6-1.3-.8-4 .6-4 2 0 .7-.9 1.5-2 1.8-1.3.3-2.2 1.7-2.6 3.6-.4 1.8-1.5 3.7-2.5 4.4-1 .7-2.1 2.5-2.4 3.9-.4 1.4-2 3.8-3.6 5.4-1.6 1.5-2.9 3.8-2.9 4.9 0 1.2-1.6 5.6-3.5 9.8-1.9 4.2-3.5 8.3-3.5 9.1 0 2.5-4.3 13.2-4.7 11.8-.3-.6-1.1-1.2-1.9-1.2-.8 0-1.4-.4-1.4-1 0-2.3-4.9 1.4-5.5 4.2-.8 3.3 1.1 6.6 2.9 4.8 1.5-1.5 4.6-1.2 4.6.6 0 .8-.4 1.2-1 .9-.5-.3-1 .1-1 .9s-.8 2-1.9 2.5c-1.5.8-1.8.7-1.7-.6 0-1-.6-1.9-1.5-2.1-1.3-.2-1.5.3-1.2 2.3.7 3.2-.5 3.3-1.7 0-.8-2.1-1.4-2.4-4.2-2-1.8.3-2.8.3-2.2 0 1.6-.8.5-4.5-2-7.2-1.9-1.8-2.4-1.9-4-.7-1.8 1.3-1.8 1.5-.1 5 1.2 2.5 1.4 3.9.6 4.3-.6.4-1.3 2.2-1.5 3.9-.2 1.8-.7 3.6-1.1 4-.4.4-.4-.3-.1-1.6.5-1.6.3-2.2-.8-2.2-2.8 0-4.6 1.2-4.6 3.2 0 1-.4 1.7-.9 1.4-1.1-.7.8-7.6 2.1-7.6 2 0 .6-2-1.9-2.6-2.3-.6-2.4-.8-1-1.9 1.1-.7 1.7-2.5 1.6-4.6 0-2.8-.2-3-.9-1.4-.4 1.1-1.9 3-3.3 4.2l-2.6 2.2.1-3.1c.1-3.3-1.4-4.8-4.3-4.1-2.2.6-2.6 3.3-.4 3.3 2.1 0 1.9.7-1 3.8-1.4 1.5-2.5 2.1-2.5 1.4 0-.7-.5-1-1.1-.7-.6.4-1.7-.1-2.4-1.1-.9-1.1-1.4-1.4-1.5-.7 0 1.5-2.6 1.7-3.5.3-.3-.5-.1-1.8.4-2.9.9-1.5.7-2-1.2-2.6-4.4-1.5-7.7-1.4-9 .5-.9 1.3-2.1 1.7-4 1.3-1.5-.3-2.7-1-2.7-1.5s-.5-.6-1.1-.2c-.8.5-1-.1-.6-1.8.4-1.4.3-2.8-.1-3.2-.4-.4-.7-2.2-.7-4 0-2.5.4-3.2 1.8-3.1 1 .1 2.3.8 2.8 1.6.6 1 .9 1 .9.1 0-.6.6-1.2 1.4-1.2.7 0 2-.7 2.7-1.7 1.3-1.5 1.1-1.6-1.6-.9-1.6.4-3.4.8-4 .9-.5.1-1.1-1-1.3-2.4-.2-2.1-.7-2.6-2.2-2.2-1.1.3-1.7.9-1.4 1.4.3.5-.2.6-1 .3-1.9-.7-2.1-2.4-.4-2.4.9 0 .9-.3.1-1.1-.9-.9-1.8-.5-3.7 1.4-1.3 1.4-2.2 2.8-1.9 3.1 1.3 1.3-1.9.5-4.3-1-3.1-2.1-3.4-1.7-1.7 2.4 1.2 3 1.5 3.2 3.6 2 1.2-.7 2.6-1.1 3-1 .4.1 1-.5 1.3-1.3.9-2.3 2.4-1.8 2.4.9 0 1.3.6 2.6 1.2 2.8.9.3.8 1.2-.5 3.2-1 1.5-1.6 3.4-1.3 4.2.3.8-.1 1.4-.9 1.4-.7 0-1.5.8-1.8 1.7-.2 1-.7 0-1.1-2.2-1.2-6.6-1.6-7.3-2.9-5.3-1 1.5-1.3 1.4-3.4-1-1.3-1.5-2.3-2.2-2.3-1.5 0 .6.4 1.5 1 1.8 1.8 1.1 1 3.7-2 6.6-3.3 3.2-5 3.7-5 1.4 0-.8-.9-1.5-1.9-1.5-1.9 0-3.5-2.3-2.3-3.5.4-.3.7-2 .8-3.6.1-1.6.9-3.8 1.9-4.9.9-1 1.5-2.5 1.2-3.2-.4-.9-.6-.8-.6.3-.1 1.8-2.5 3.2-3.5 2.2-.3-.4-.6-1.4-.6-2.4 0-1.7-2.7-2.9-6.7-2.9-3.5 0-6-6-2.5-6 1.6-.1 1.6-.1-.1-1.1-.9-.6-1.5-1.5-1.1-2.1.4-.6-.1-.8-1.5-.4-1.1.3-3 .9-4.1 1.2-1.1.3-2 1-2 1.5 0 .6-.9.7-2 .4-1.1-.4-2-.2-2 .4 0 .6.4 1.1.9 1.1s1.1.9 1.4 2c.6 2.4-.6 2.6-2.7.5s-2.7-1.9-2.2.9-2.2 4.1-4.2 2c-1.8-1.9-1.6-5.8.3-5 .9.3 1.5 0 1.5-.9 0-.8-.4-1.5-1-1.5-1.8 0-1-2.8.9-3.3 1.6-.4 2.1.1 2.3 2.7l.4 3.1 1.3-2.7c1.1-2.1 1.9-2.6 3.5-2.3 1.6.4 2.4-.1 3.4-2.2 1.7-3.7 1.5-4.8-.5-3.2-1.5 1.3-1.6 1.2-1.1-.9.4-1.5.2-2.2-.9-2.2-1 0-1.3.6-.9 1.6.7 1.8-1.9 5.4-3.9 5.4-.7 0-1.8-.7-2.5-1.5-1-1.2-.9-1.6.4-2.1.9-.3 1.6-1 1.6-1.6 0-1.3 2.6-3.8 3.9-3.8.6 0 .7-.8.4-1.7-.5-1.2-.2-1.5 1-1 1 .4 1.8.1 1.9-.6.3-2.7.4-9.9 0-8.9-.5 1.5-3.2.3-3.2-1.4 0-.8.7-1.7 1.5-2 1.7-.7 2.1-5 .4-5.6-.7-.2-.7-1.2 0-3.1.9-2.2.7-2.8-.9-3.7-1.5-.8-1.9-1.7-1.4-3.4.4-1.9.2-2.2-1.7-2.1-1.3.1-2.5.7-2.7 1.3-.2.7-1.1 1.2-1.9 1.2-1.4 0-1.4.3.2 2 1 1.1 1.3 2 .7 2-1.8 0-1.4 3 .4 3.7 1.2.4 1.4 1.4.9 3.9-.4 2.6-.2 3.4.8 3.4.8 0 1.8.7 2.1 1.6.9 2.3.8 2.7-.9 2-2.1-.8-1.9 1.1.5 3.6 1.8 1.9 3 5.2 1.3 3.5-.3-.4-1.2.2-2 1.3s-2 1.7-2.8 1.4c-.8-.4-1.5-.1-1.5.6 0 .6.5.8 1 .5.6-.3 1.3.2 1.7 1.1.4 1 .2 1.9-.5 2.2-.7.2-1.2 1-1.2 1.9 0 .8-.6 1.3-1.2 1-.9-.2-1.2-2-1-5.4.3-4.3 0-5.3-1.9-6.7-2-1.3-2.1-1.9-1.1-4.1.6-1.4.8-2.5.3-2.5s-1.1.9-1.4 2.1c-.3 1.2-1 1.8-1.6 1.4-.6-.3-1.1.1-1.1.9 0 .9.3 1.6.8 1.6 1.1 0 .6 8.8-.6 10.3-.9 1-.8 1.7 0 2.5.9.9.9 1.5-.1 2.4-1.1 1.1-1.3 1-.8-.4 1.2-3.4-2.5-2.9-5.9.8-4 4.1-4 4.4-1.5 4.4 1.1 0 2.1.6 2.4 1.2.3.9 1 .7 2.6-.7 2-1.7 2.4-1.8 3.4-.5.7.9 2.1 1.4 3.2 1.2 2-.3 2-.3.1 1.3-1.1.8-2.3 1.5-2.8 1.5-.4 0-.8.7-.8 1.5s-.4 1.5-1 1.5c-.5 0-1-.7-1-1.5s-.4-1.5-1-1.5c-1.2 0-3.1 3.5-2.3 4.4.9.9-1 .7-2.5-.2-.8-.5-1-1.6-.6-2.7.5-1.3.4-1.6-.4-1.1-1.5.9-1.5 4.8 0 8.1.9 1.9.9 2.8 0 3.7-.9.9-1.2 42.7-1.2 172V512h213l-1-2.4c-2.6-7-8.4-16.8-12.5-21.4-5.2-5.8-22.9-18.9-31.5-23.3-1.4-.7-4.7-2-6.2-2.4-.5-.2-.9-.4-1-.5-1.3-1.3-20.2-1.9-27.2-.9-9.9 1.4-12.1 2-15.6 4.3-5.1 3.4-9.2 4.7-14.6 4.9-4.3.2-4.9-.1-5.2-2-.4-2.5 2.8-4.6 7.3-4.8 1.7-.1 7.2-2.3 12.4-4.8 8.5-4.2 10.1-4.7 16.3-4.7 13.6 0 27.9 3.1 37.7 8.1 5.8 3 21.4 14.3 21.9 15.9.2.6.8 1 1.3 1 1.5 0 14.9 14.1 14.9 15.6 0 .4.6 1.5 1.4 2.3 2.1 2.4 5.6 9 5.6 10.6 0 .8.5 1.5 1 1.5.6 0 1 .7 1 1.5 0 1.3 5.4 1.5 42.8 1.5h42.7l3-2.8c5.4-5 11.9-9.7 16.5-11.9 17.4-8.4 30.4-14.4 32.8-14.9 1.5-.4 3.2-1 3.7-1.5 2-1.5 19.1-3.2 27.7-2.6 12.1.8 22.4 3.9 31.6 9.6 7.8 4.9 9.4 7 7.2 9.6-2.2 2.6-6.5 1.6-17.6-4-13-6.5-25.9-9.8-37.9-9.7-7.9 0-9 .2-13 1.6-2 .8-35 17.2-38.4 19.1-4.1 2.4-9.1 6.1-9.1 6.7 0 .5 45.2.8 100.5.8H512v-66.8l-4.7-3.2c-2.7-1.7-8.8-5.1-13.8-7.5-21.5-10.3-51.3-23.9-68-30.9-21.7-9.3-29.6-12.8-31.2-13.9-1.2-.9-2.7-5.7-1.9-6.4 1.2-1.2 46.5 18 79.3 33.6 11.7 5.6 21.5 10.1 21.8 10.1.3 0 4.6 2.4 9.5 5.4l9 5.4v-106l-2.2-1.9-2.3-2 2.3-1.5c1.2-.9 2.2-2.4 2.2-3.3 0-1.4-.2-1.4-1-.1-.8 1.3-1 1.2-1-.3 0-.9.5-1.7 1-1.7.6 0 1-1.8 1-4 0-2.3-.5-4-1.1-4-.6 0-.9-.7-.5-1.5.3-.9 0-1.5-.8-1.5-2.3 0-3 5.2-1 6.7 1 .7 1.3 1.3.7 1.3-.7 0-1.3 1-1.5 2.3-.7 4.7-2.3.9-2.3-5.5 0-7.2 0-7.2-3.1-8.2-1.5-.5-2.4-.2-2.8.9-.5 1.3-.1 1.5 1.6.9 1.7-.5 2-.3 1.5 1-.4 1 0 3 .8 4.5 1.4 2.7 1.1 4.1-.7 4.1-.4 0-.8-1.1-.8-2.5 0-3-1.1-3.2-3.5-.5-1.8 2-1.4 3.5.8 3.5.6 0 1.2 1.1 1.3 2.5.5 5.9-5.8 8.3-6.4 2.5-.2-2.1 0-2.6.7-1.6.5.8 1.6 1.1 2.6.7 1.5-.5 1.3-1.1-1.4-4.1-1.7-2-3.1-4.2-3.1-5 0-.7-.6-1.6-1.2-1.8-1-.4-1-.6 0-.6.6-.1 1.2-.8 1.2-1.7 0-1.3-.4-1.1-1.8.6l-1.8 2.3-2.2-2.8c-1.2-1.5-1.9-3.1-1.6-3.6.3-.5.3-1.8-.1-2.8-.4-1.5-1.4-1.8-5.1-1.6-2.7.1-4.9.7-5.5 1.6-.7 1.1-.9 1.1-.9.1 0-.8 1.2-2.6 2.8-4.1 2.9-3 4.2-8.7 1.7-7.8-.7.3-1.6-.1-1.9-.9-.7-1.9-6.6-1.9-6.6.1 0 .8-.5 1.5-1.1 1.5-.5 0-.8.4-.5.8.3.5-.2.9-1 .9-1.1 0-1.4-.7-1.1-2.4.3-1.7 0-2.3-1.4-2.3-.9 0-2 .6-2.2 1.2-.3.8-.6.6-.6-.5-.2-2.8-2.1-1.9-2.2 1-.1 2.1-.2 2.3-.6.8-.6-2.5-2.3-4.4-2.3-2.6 0 .8-.6 1.1-1.5.7-1.8-.6-1.8-.5-.5 2.9.9 2.2.8 2.6-.4 2.2-.8-.3-1.7 0-2 .8-.3.8-1.3 1.1-2.5.8-2.3-.6-2.6-1.4-1-3 1.5-1.5.1-6-2-6.6-1-.2-2.6 0-3.5.5-2.2 1.2-5.9-2.1-4.6-4.2 1.5-2.3 1.2-3-1.1-3-1.9 0-1.9-.1-.5-1.6 2.1-2.1 2-3.1-.4-3.7-1.9-.5-2.5.6-2.1 3.9.1.7-.6 1.5-1.5 1.8-1.3.5-1.5.1-1.2-1.9.3-1.4.1-2.5-.3-2.5-.5 0-.8-.3-.8-.8.4-2.1-.3-3-2.6-3.6-1.4-.4-2.5-1.1-2.5-1.6s.7-.6 1.7-.3c1.1.4 1.4.3.9-.5-.4-.7-1.4-1.2-2.1-1.2-.8 0-1.2-.6-.9-1.4.7-1.8-1.1-2.9-3.5-2.1-1.7.5-1.8.8-.6 3.2.8 1.4 1.8 2.9 2.4 3.2.6.4.8 1.7.4 2.9l-.6 2.3-1.3-2.3c-.8-1.3-1.7-3.1-2-4.1-.4-1-1.7-1.7-3.4-1.7-3 0-4.5 1.3-5.3 4.5-.3 1.3-.5.8-.6-1.3 0-1.8.4-4.2.9-5.3.8-1.5.7-1.9-.5-1.9-.8 0-1.5.7-1.5 1.5 0 .9-.9 1.5-2.5 1.5-1.4 0-2.5-.4-2.5-.9s-1.2-2.3-2.6-3.9c-2.2-2.5-3-2.8-4.5-1.9-1.7 1-1.7 1.2.3 4 1.1 1.5 1.9 2.9 1.7 3-.2.2-1.3.9-2.3 1.7-1.3 1-1.7 1-1.2.2.4-.6.3-1.2-.3-1.2-.5 0-1.2.6-1.4 1.2-.3.7-.6 0-.6-1.6-.1-1.6-.9-3.5-1.8-4.2-2.4-1.8-3.6-1.7-2.9.2.6 1.6-.9 4.4-2.4 4.4s-1.8-3.9-.4-4.4c1.5-.6 2-3.6.5-3.6-.4 0-1.1-1.5-1.4-3.3-.3-1.7-.9-4.1-1.3-5.1-.5-1.3-.4-1.7.4-1.2s1-.2.5-2.5c-.4-2.1-.3-3 .4-2.6.6.4 1.3.1 1.6-.7.3-.8-.1-1.7-1-2-2-.8-1.7-1.4-3.1 6.9-.7 3.8-2.2 12.2-3.3 18.5-1.2 6.3-2.2 12.8-2.3 14.5-.1 1.6-.4 3.4-.7 4-.4.5-1 2.8-1.4 5l-.8 4-.9-3c-.4-1.7-1.1-7.5-1.3-13-.3-5.5-.6-10.9-.7-12-.4-5.3.3-15.5 1.1-15.5.6 0 1.3 2.1 1.6 4.7 1.2 9.1 2.1 9.2 2.9.3.4-4.7 1.1-8.9 1.6-9.4 1.3-1.3 1.3-5.3 0-6.1-.5-.3-1.8.3-3 1.5-3.1 3.1-3.3 2.4-.7-2.3 2.9-5.1 4.4-16.2 5.2-39.8.6-15.8.5-17-1.9-24.2-1.4-4.2-2.8-9.3-3.2-11.4-.3-2.1-1.2-4.5-1.9-5.3-.7-.8-2.6-4-4.2-7-3.6-6.9-9.4-14.9-11-15-1.7 0-6.3-5.9-6.3-7.9s-4-7.1-5.5-7.1c-2.5-.1-5.6-4.2-6.7-8.9-.9-4-1.6-5.1-3.2-5.3-3.5-.2-4-.3-6.3-1.6-1.3-.7-2.3-1-2.3-.7 0 .3-1-.1-2.2-.9-1.2-.9-3.3-1.6-4.5-1.6-1.3 0-2.3-.4-2.3-1 0-1.5-5.6-4-8.9-4-1.6 0-3.3-.5-3.6-1-.3-.6-1.9-1-3.4-1s-3.2-.5-3.9-1.2c-.7-.7-1.2-.9-1.2-.5 0 .3-1.2.2-2.7-.4-1.6-.6-3.7-1.3-4.7-1.5-2.9-.5-11.8-3.4-14.1-4.5-1.1-.5-3.1-.9-4.5-.9-1.4.1-5.2-.1-8.5-.4-3.3-.2-9-.1-12.7.4zm20.7 12c.3.5.1 1-.4 1-.6 0-1.1-.5-1.1-1 0-.6.2-1 .4-1 .3 0 .8.4 1.1 1zm15 1c.3.5.2 1-.4 1-.5 0-1.3-.5-1.6-1-.3-.6-.2-1 .4-1 .5 0 1.3.4 1.6 1zm30.5 22c.8.5 1.1 1 .5 1-.5.1.4.7 2 1.4 2.6 1.1 3.1 1.1 3.6-.2.9-2.6 18.9 17 18.9 20.7 0 .5 1 2.2 2.3 3.8 2.6 3.1 9.7 17.1 9.7 19 0 .7.7 2.9 1.6 5 3 6.7 3.3 7.7 3.9 12.7.4 2.6 1.7 8.1 2.9 12 2.3 7.1 2.6 9.6 4.6 39.1 1.6 23.5 1.9 35.4 1 38.5-.5 1.8-.4 3.2.3 3.9.8.8.8 1.1 0 1.1-.6 0-1.3 3-1.6 6.7-1.2 12.6-1.7 15.5-2.8 16.9-.6.7-1 2.8-.9 4.6.3 5.1.1 5.8-1.5 5.8-1 0-1.5 1-1.5 3 0 1.6-.4 3-1 3-.5 0-1 .9-1 2.1 0 1.3-.4 1.8-1.2 1.3-.7-.4-.2.6 1 2.3 2.8 4 1.8 4.7-3.3 2.3-5.5-2.6-7.1-2.5-4.5.2 1.3 1.4 1.9 3.1 1.6 4.3-.3 1.1-.6 2.9-.6 4 0 1.8-.2 1.8-2.1-.5-1.4-1.7-2.2-2.1-2.6-1.3-.2.7-1.1 1.3-1.8 1.3-1.9 0-2.6 2.7-.9 4 .8.7 1.4 2.1 1.4 3.2 0 1.5-.5 1.8-1.9 1.3-1.1-.3-2.2-.1-2.6.5-.4.6-1.5.8-2.5.5-1.5-.5-2 .1-2.6 3.1l-.7 3.7-3-3.4c-4.5-5.2-5.9-10.7-2.4-9.4.7.3 1.9.1 2.7-.5 1.2-.7 1.2-1.4.2-4.3-.7-1.8-1.2-4.6-1.2-6 0-3.6-4.7-12.2-8.9-16.4-2.5-2.4-4-3.1-5.6-2.7-1.3.3-3.2.1-4.3-.5-1.5-.8-2.3-.8-2.7-.1-.5.8-1.1.8-1.9.1-.7-.6-1.5-.8-1.9-.5-.3.3-1.5-.8-2.8-2.5-2-2.8-2.3-2.9-3.5-1.3-1.5 2.1-1.9 1.7-2.7-2.6-.5-2.5-.3-3.2.9-3.2.8 0 1.7-.7 2-1.5.3-.8 1.4-1.7 2.4-2 3.2-1 4.7-5.4 3.5-10.2-1.3-5.5-6.4-12.2-9.1-12.3-1.2 0-2.7-.6-3.3-1.4-.7-.8-2-1.2-3-.9-1.9.5-3.6-2.1-2.5-3.8.3-.5 0-.8-.8-.7-.7.2-1.3-.4-1.3-1.2-.1-.8-.7-2.6-1.4-3.8-1.8-3.3-.7-3.9 3.7-1.7 2 1 4.5 2 5.5 2.2 1.9.3 2.3-1.3.5-2-.7-.3-.3-.6 1-.7 6.8-.6 9.3.1 12.7 3.2 1.7 1.7 2.1 1.7 3.1.3 1.4-1.8 5.8-2.1 5.1-.3-.2.7-1 1.2-1.6 1.1-1.4-.4-1.4 1.4 0 2.3.8.4.7.9-.2 1.6-1 .7-.4.8 1.8.5 2-.2 3.4.1 3.7 1 .6 1.4 5.5.9 9-1 1.5-.7 2.2-.5 3.2.8 1.2 1.6 1.4 1.7 2 .2.3-.9 2.1-1.9 4-2.3 3.4-.6 4.9-2.9 4.4-6.5-.1-.8.1-2.4.5-3.7.6-1.8 1-2 2.1-1.1.9.8 1.4.8 1.4.1 0-.6-.5-1.4-1-1.7-.6-.4-.8-1.1-.5-1.6.4-.5-.1-.9-.9-.9-2 0-2.1-3.9-.1-4.6.8-.3 1.7-1.4 2-2.3.7-2.4-2.2-9-4.3-9.8-.9-.4-2.1-1.2-2.5-2-1.2-1.9-7.5-4.9-12.2-5.7-4.1-.8-14.9-.8-18.5-.1-1.6.3-1.9.1-1.2-1.2 1-1.6 10.3-5.3 13.7-5.3 1.1 0 4.4-1.1 7.3-2.5 4.3-2 5.2-2.9 5.2-5 0-1.7-.5-2.5-1.8-2.5-1 0-2.4-.6-3.1-1.3-1-1-1.4-.9-2.1.4-.8 1.4-2.4 1.6-8.7 1.4-4.3-.2-8.2 0-8.8.3-2.1 1.4-8.1 3.2-10.7 3.2-3.1 0-6.8 3.1-6.8 5.7-.1 1.7-.2 1.7-1.3.1-1.2-1.5-1.4-1.5-2.5.3-.7 1-1.2 2.3-1.2 2.8 0 1.2 7.6 3 10 2.4 1.1-.3 2-.1 2 .3 0 1-6.1 5.3-9.9 7-2.1 1-2.5 1.9-2.8 7-.4 6.3-1.6 8.6-4 7.7-1.2-.5-1.5-.2-1.1.9.4.8.2 2.1-.2 2.9-.5.7-.5 1.8.1 2.5.6.8.5 1.4-.6 1.7-.8.4-1.4.1-1.2-.6.1-.7-.6-1.2-1.6-1.2-1.1 0-2.7-1.1-3.8-2.4-1.2-1.5-1.9-1.8-1.9-.9 0 .8.9 2.4 2.1 3.7 5.7 6.1 11.9 14.2 13.9 18.2 2.4 4.6 4.2 6.5 10 10.3 3.1 2 3.5 2.7 3.4 6.4 0 2.9-.7 4.7-2 5.7-2.7 2-5.6 1.9-5.2-.2.8-4.4-10.8-5.3-22.7-1.8-1.2.4-3.9-.4-6.7-1.9-3.7-2-5-2.3-6-1.3-.7.7-2.9 1.3-4.9 1.4-2 .2-5.2 1-7.2 1.8-5.1 2.1-6.7 1.9-6.7-.8 0-3.5 2.8-5.2 8.3-5.2 4.5.1 4.7 0 4.7-2.7 0-1.5.5-2.8 1.1-2.8.8 0 .9-.4 0-1.3-.6-.8-.7-1.8-.3-2.2.4-.5.1-.5-.5-.1-.7.4-1.3 1.8-1.3 3.2 0 1.6-.4 2.3-1.1 1.8-1.6-1-.2-7.1 3.2-13.3 3.5-6.3 11.3-16.7 13.5-17.9 1.4-.8 1.4-1.5.3-5.3-.7-2.4-1.7-5-2.2-5.7-.8-.9-.6-1.2.4-1 .8.2 1.5-.7 1.7-2 .2-1.2-.1-2.2-.7-2.2s-1.1.4-1.1.9-1.6.7-3.6.5c-2.7-.3-4 0-5 1.3-1.3 1.7-1.5 1.7-2.7-.2-.6-1.1-1.2-2.6-1.2-3.4 0-.8-.6-1.6-1.3-1.9-.6-.2-1.2.2-1.2.8 0 1-.3 1-1.4.1-1.1-.9-2-.9-3.5-.2-2.5 1.4-3.1 1.4-3.1.1 0-.6.6-1 1.3-1 2.4 0 1.9-5.9-.7-8.3-2.7-2.5-15.9-7.3-17.4-6.3-.5.3-2.9-.1-5.3-1-4.6-1.6-24.2-2.7-23.3-1.3.2.4-1.2 1.1-3.1 1.5-4 .7-5.3-.3-7.5-6.4-1.1-3-1-3.7.9-6.3 1.7-2.3 1.8-2.9.7-3.6-.8-.4-1.4-1.7-1.3-2.8.2-1.5-.3-1.9-2-1.8-3.1.4-2.9-.8.7-4.2 2.4-2.3 3.2-2.6 4.5-1.5 1 .8 1.5.9 1.5.1 0-.6-.4-1.1-.9-1.1s-.9-1.6-.9-3.5.5-3.5 1-3.5c.6 0 .8-.7.5-1.5-.4-.8-.3-1.6.1-1.9 1.2-.6 5.4 1.3 4.8 2.3-.3.5.2.7 1.1.5 1.5-.4 1.8-1.6 1.8-6.2 0-3.1-.3-5.8-.7-6-1.8-.5-2.6-.1-3 1.6-.3 1-1.5 1.8-2.6 1.9-1.2.1-3.1 1.1-4.4 2.2-2.6 2.5-5.4 2.7-6.2.5-.4-.9-1.3-1.4-2.1-1-1.2.4-1.4 0-.8-2.2.7-2.8 2.7-5.5 3.6-4.6.2.3.7-.2 1-1.1.4-.8.2-1.5-.3-1.5-1.1 0-1.3-3.3-.3-4.4.4-.3.8-1.4.9-2.4.1-.9.5-4.3.9-7.5.5-4.1 1.2-6 2.5-6.7 1.1-.6 2.7-2.7 3.7-4.8 2.4-5.2 4-6.7 5.7-5.3 1 .8 1.7.7 2.6-.4.7-.9 1.8-1.4 2.4-1.2.6.2 2.2 0 3.4-.5 2-.7 3-.2 5.9 2.7 3.7 3.7 4.9 4.2 5.5 2.4.5-1.4 3.9.4 7.7 4.1 2.2 2.1 3.2 2.5 6.6 2 2.2-.3 5.3-.2 6.9.2 2 .5 3.3.3 4.5-.9 1.5-1.6 1.6-1.5 1.9.6.2 1.4 1.4 2.6 3.3 3.3 1.6.5 2.9 1.4 2.9 1.9 0 2 8.5.6 17-2.8.8-.3 2-.7 2.7-.9 1.8-.3 13.1-7.3 13.8-8.5.4-.5 1-.7 1.5-.4.4.3 1.3-.2 2-1.1 1.1-1.2 1.5-1.2 2.1-.2.7 1 1.1 1 2.1 0 .9-.9.9-1.2 0-1.2-.7 0-1.2-.4-1.2-.9 0-.6 1.2-.3 2.8.5 3.4 1.7 4.2 1.8 4.2 0 0-.8 1.5-1.7 3.5-2 2.5-.5 3.9-1.5 4.7-3.2.6-1.3 1.9-2.5 3-2.5 1-.1 2.3-.3 2.8-.4.6-.1 1.5-.3 2-.4.6 0 1-.8 1-1.6 0-1.7.9-1.9 3-.5zM31.3 157.2c-.2.5.1 1.6.9 2.5 1.2 1.5 1.1 1.5-.8.5-2.7-1.4-3.6-3.6-2.1-5.1 1.2-1.2 3 .6 2 2.1zm8.6 5.7c.9.6 1 1.1.2 1.5-.8.5-.8 1.3-.1 2.6 1.4 2.6 1.3 3-1.1 3-1.7 0-2-.5-1.6-2 .4-1.7.2-2-1.4-1.5-2 .7-2.3-.2-1.3-2.9.7-1.7 3.1-2.1 5.3-.7zm5.1 5c0 .6-.4 1.3-1 1.6-.5.3-1-.1-1-.9 0-.9.5-1.6 1-1.6.6 0 1 .4 1 .9zm-6 3.8c1.4.6 3.3 1.4 4.2 1.7 1.1.3 1.5 1.1 1.2 2.1-.5 1.1-1 1.3-1.7.6-.5-.5-1.6-.7-2.3-.4-.8.3-2.3-.5-3.4-1.8-2-2.4-2.6-4.3-1.2-3.7.4.2 1.8.9 3.2 1.5zM13 174c0 1.1-.6 2-1.4 2-.9 0-1.2-.7-.9-2 .3-1.1.9-2 1.4-2 .5 0 .9.9.9 2zm163.4 6.5c.7 2.7.1 4.5-1.5 4.5-.5 0-.9-1.6-.9-3.5 0-4.1 1.5-4.7 2.4-1zM39 181.6c0 .2-.9.4-2.1.4-1.1 0-1.8-.4-1.4-1 .5-.8 3.5-.3 3.5.6zM19 185c0 1.9-1.1 2.6-2.3 1.4-.8-.8.3-3.4 1.4-3.4.5 0 .9.9.9 2zm57.5-1c.3.5.1 1-.4 1-.6 0-1.1-.5-1.1-1 0-.6.2-1 .4-1 .3 0 .8.4 1.1 1zm-9.5 2.4c0 .8-.5 1.8-1 2.1-.6.4-.8 1.1-.5 1.6.4.5.3 1.4-.1 2.1-.5.8-1 .2-1.5-1.6s-.3-3.3.4-4.2c1.6-1.8 2.7-1.7 2.7 0zm-47 5.5c0 1.7-.4 3.2-.9 3.6-1.1.6-1.9-2.2-1.3-4.8.7-2.8 2.2-2 2.2 1.2zm84.8-.7c-.3.7-1.1 1.3-1.9 1.3-.8 0-1.4 1-1.3 2.3 0 1.2-.3 2.2-.8 2.2-.4 0-.8-.4-.8-1 0-.5-.8-.6-1.7-.3-1.4.6-1.4.3.3-2 2.3-3.2 7-5.1 6.2-2.5zm29.2-.3c0 1.7-1.8 2.1-2.4.6-.3-.9 0-1.5.9-1.5.8 0 1.5.4 1.5.9zm-120 2.6c0 .8-.4 1.5-1 1.5-.5 0-1-.7-1-1.5s.5-1.5 1-1.5c.6 0 1 .7 1 1.5zm117.7 2.7c-.3.8-.6.5-.6-.6-.1-1.1.2-1.7.5-1.3.3.3.4 1.2.1 1.9zM112 196c0 .5-.4 1-1 1-.5 0-1-.5-1-1 0-.6.5-1 1-1 .6 0 1 .4 1 1zm32 .5c0 1.7-2.2 2.9-4.1 2.3-.8-.3-.6-.9.5-2.1 2.2-2.1 3.6-2.2 3.6-.2zm-6 .5c0 .5-.2 1-.4 1-.3 0-.8-.5-1.1-1-.3-.6-.1-1 .4-1 .6 0 1.1.4 1.1 1zm5.2 9.7c-.7 3.6-1.2 2.7-1.1-2 0-3 .3-3.6.8-2.3.4 1.1.6 3 .3 4.3zM58 208.1c0 1.1-.4 1.7-1 1.4-.5-.3-1-1.5-1-2.6s.5-1.7 1-1.4c.6.3 1 1.5 1 2.6zm63.1-1.1c.1.5.2 1.5.3 2 0 .6.7 1.5 1.5 1.9 1.1.7 1 1.1-.6 2-1.7.8-2.4.6-4.2-1.3-2-2.2-2.1-2.5-.6-4 1.9-1.8 3.4-2.1 3.6-.6zm13.9 3.1c0 .5-1.2.9-2.7.9-2.7-.1-2.7-.1-.9-1.5 1.9-1.4 3.6-1.2 3.6.6zm-7 .9c0 .5-.4 1-1 1-.5 0-1-.5-1-1 0-.6.5-1 1-1 .6 0 1 .4 1 1zm12 .3c0 1.9-2 3.6-3.7 3-1.1-.5-1.1-.9.4-2.4 2.2-2.1 3.3-2.4 3.3-.6zm5 2.2c0 .5-.5.3-1-.5s-1-2-1-2.5c0-.6.5-.3 1 .5s1 1.9 1 2.5zm-31.8-1.3c-.9.9-1.5.9-2.4 0-.9-.9-.7-1.2 1.2-1.2s2.1.3 1.2 1.2zm215.8.2c0 1.1-1.9 1.5-2.5.6-.3-.5.1-1 .9-1 .9 0 1.6.2 1.6.4zM145 220c0 .5-.5 1-1.1 1-.5 0-.7-.5-.4-1 .3-.6.8-1 1.1-1 .2 0 .4.4.4 1zm-3 6c0 .5-.5 1-1.1 1-.5 0-.7-.5-.4-1 .3-.6.8-1 1.1-1 .2 0 .4.4.4 1zm70.9 3.2c3.3 1.2 5.4 2.8 4.7 3.5-.2.2-2.3.5-4.7.8-2.4.3-6.1 1.1-8.2 1.7-3.2 1-4 .9-4.8-.3-1.1-1.8-1.1-3.2 0-2.4.6.3 1.8-.6 2.8-1.9 2-2.9 4.9-3.2 10.2-1.4zm-70.2 6c-.3.8-.6.5-.6-.6-.1-1.1.2-1.7.5-1.3.3.3.4 1.2.1 1.9zm182 4.3c.7 2-2.4 5.5-4.9 5.5-2.2 0-2.2-.3-.3-4 1.7-3.2 4.2-3.9 5.2-1.5zM303 241c0 1.1-.4 2-.9 2-1.3 0-3.2-2.6-2.4-3.3 1.3-1.4 3.3-.6 3.3 1.3zm-159.7 6.6c-1 .7-2.1 1.4-2.5 1.4-1.6 0-.7-3.6 1.5-6.2l2.2-2.7.3 3c.2 2.1-.3 3.5-1.5 4.5zm88.2-.8c-3.2 2.7-4.1 1.9-2.5-2.2.9-2.4 1.2-2.6 3.2-1.5l2.2 1.2-2.9 2.5zm-18.5 1.7c1 1.2 1 1.5-.4 1.5-.9 0-1.6-.7-1.6-1.5s.2-1.5.4-1.5.9.7 1.6 1.5zm-62.7 12.9c.3.8.3 2.4 0 3.6-.4 1.6-.8 1.8-1.4.8-1.1-1.7-1.1-5.8 0-5.8.5 0 1.1.6 1.4 1.4zm8.7.1c0 .8-.4 1.5-1 1.5-.5 0-1 1-1 2.2 0 1.9.2 2 1 .8.8-1.3 1-1.2 1 .2 0 1 .5 1.8 1 1.8 1.7 0 1.1 4.6-1 7-1.2 1.4-1.8 3.1-1.5 4.1.4 1 .2 2.7-.4 3.6-.8 1.4-1.1.8-1.2-3.2-.5-10.3.6-19.5 2.1-19.5.6 0 1 .7 1 1.5zm236 11.3c0 1.5-1.1 2.1-2.7 1.5-1.2-.5-1.2-.7-.1-1.4 1.7-1.1 2.8-1.1 2.8-.1zm10 2c1.3-.2 2.5.3 2.7.9.3.8-.5 1.3-2.2 1.3-3.3 0-6.8-1.8-5.9-3.1.4-.7 1-.6 1.9.1.7.5 2.3.9 3.5.8zM231 279c1.1.7 1.2 1.3.2 3.2-1.4 2.7-3.2 10.5-2.5 11.1.2.3.5 1.8.6 3.3.1 1.6.8 2.9 1.6 2.9 1.4 0 4.1 3.3 4.1 5.1 0 1.5-6.8 5.9-7.7 5-.3-.3-1.1.1-1.7.9-.6.8-3.1 1.6-5.6 1.7-3.3.2-5 .9-6.4 2.6-1 1.3-1.6 2.6-1.2 2.9.3.3-.5 1.8-1.8 3.4-2 2.3-2.4 3.8-2.2 8.4.2 3.4.9 6.2 1.9 7.3 1 1 1.7 2.8 1.7 3.9s.7 2.6 1.5 3.3c1.1.9 1.4 2.5 1.1 5.6-.5 5.2-1 6-3.5 6.7-1.5.3-2.2-.1-2.7-1.7-.3-1.1-1.3-2.9-2.2-3.9-.9-1-1.7-3.6-1.8-5.8-.1-2.2-1-4.9-2-6-1.5-1.7-1.3-2.3.7-2.1 1.1.2-.4-5.3-1.6-6-1-.6-1-1.9-.3-5.3.8-3.8.7-4.8-.8-6.2-1.2-1.3-1.9-1.4-2.2-.5-1.2 3.6-3.3-2-3.2-8.7 0-1.4-.5-2.8-1.2-3.2-1.6-1 .7-8.8 2.8-9.6.8-.3 1.3-1.2.9-2-.4-1.1-.1-1.3 1.1-.9 1 .4 1.7 0 2-1.1.6-2.1 6.1-5.9 9.8-6.9 1.5-.3 3-1.1 3.4-1.8 1.3-2 5.4-3.8 9.5-4.1 2.3-.2 4.3-.8 4.5-1.4.4-1.3 1.2-1.4 3.2-.1zm242.9 17.4c0 .7-.2.6-.6-.2-.2-.6-1.1-1.2-1.9-1.2-.9 0-1.2-.5-.9-1 .8-1.3 3.5.6 3.4 2.4zm-32.1-.4c-1.5 2.4-2.4 2.5-3.1.6-.5-1.3.5-2 3.6-2.5.4 0 .2.8-.5 1.9zm4.2-1c0 .5-.5 1-1.1 1-.5 0-.7-.5-.4-1 .3-.6.8-1 1.1-1 .2 0 .4.4.4 1zm-160 .7c0-.7.5-.6 1.3.2 1 1.1 1 1.4 0 1.8-.7.3-1.3 1.1-1.3 1.9 0 .8-.8 1.5-1.7 1.5-2.2.2-5.7.7-10.4 1.5-2.8.4-3.8.2-4.2-1-.5-1.2.1-1.9 2.1-2.6 1.5-.6 3.8-1.6 5.1-2.4 1.6-.9 3.5-1.1 5.7-.6 2.3.5 3.4.4 3.4-.3zm88.1 3.8c2.5-1.6 3.1 7.1.6 10.2-2 2.7-2.7 1.1-2.6-6 .1-3.9.3-6.4.6-5.4.2.9.9 1.5 1.4 1.2zM266 302c-.9 1.7-1.4 1.8-3 .7-2.8-1.7-2.5-2.7 1-2.7 2.8 0 3 .2 2 2zm211 5c0 .5-.2 1-.4 1-.3 0-.8-.5-1.1-1-.3-.6-.1-1 .4-1 .6 0 1.1.4 1.1 1zm-179.1 15.2c2 0 5.1.8 6.9 1.9 1.9 1.1 3.8 1.7 4.3 1.4.5-.4.9.1.9.9 0 1.8-2.7 2.1-6.2.7-1.3-.5-4.9-1.4-8-2.1-4-.8-5.8-1.6-5.8-2.6 0-1.1.6-1.3 2.1-.9 1.2.4 3.7.7 5.8.7zM196 330c0 .5-.2 1-.4 1-.3 0-.8-.5-1.1-1-.3-.6-.1-1 .4-1 .6 0 1.1.4 1.1 1zm120.5 6.1c-.4.5-.1.9.6.9.8 0 1 1.5.5 5.4-.3 3.3-.2 5.7.4 6.1 1.5.9 1.2 4.5-.5 5.1-.8.4-1.5 1.6-1.5 2.8 0 2.6-2.2 7.6-3.2 7.6-.5 0-.8.8-.8 1.8 0 2.3-2.9 6.4-3 4.2 0-1.2-.3-1.1-1.1.3-.6.9-.7 2.6-.4 3.7.5 1.5.3 1.8-.8 1.4-2.6-1-2.9 1.6-.5 3.6 1.3 1.1 1.9 1.9 1.5 2-.5 0-1.6-.7-2.5-1.6-1.4-1.5-1.7-1.5-2.9.2-.7.9-1.4 1.6-1.5 1.3-2.3-3.6-3.8-7-3.8-8.3 0-.9-.5-1.6-1.1-1.6-.5 0-.7.5-.4 1 1 1.6-.5 5.2-2 4.6-.8-.3-3.2.9-5.5 2.5-4.2 3.1-7 3.2-7 .4 0-2.5-1.7-1.7-2.4 1.1-.4 1.5-1.3 3.3-2.1 4.1-1.3 1.2-1.6 1.1-2.6-1.1-1.4-2.9-4-3.8-5.8-1.9-1.1 1.2-1.5 1.2-2.6-.3-1.5-2.1-.8-5.5 1-4.8 1 .4 1.2-.1.8-1.8-.4-1.3-1-2.6-1.5-2.9-1.8-1.2 8.4-3.8 10.9-2.8 2.5.9 2.3 1.2 2.7-5.6.1-2.5.6-3 3.9-3.8 2-.5 3.7-1.3 3.7-1.8s1.1-.9 2.5-.9c2.8 0 2.9-.3 1.5-3-.8-1.6-1.5-1.8-3.5-1-1.4.5-2.5.7-2.5.4 0-.4-.6-.2-1.2.3-1.3 1-6 1.6-11.3 1.6-4.8 0-15.9-2.5-16.7-3.7-1.7-2.6 3-3.6 18.4-4 6.1-.2 11.3-.8 12.1-1.4.8-.7 1.7-.9 2.1-.5 1.1 1.1 4 1 4.8-.2.4-.5 1.8-1 3.1-1 2.9-.2 12.1-4.7 16.3-8 2.7-2.2 5.1-2.5 3.9-.4zm-94.1 7c1.7 1.4 1.8 1.9.8 3.2-1.1 1.3-1.6 1.2-3.7-.9-2.8-2.8-3-3.5-1.3-5.2 1-1 1.4-1 1.7 0 .2.7 1.3 2 2.5 2.9zm-24.2 1.4c.4 1.7.1 2.5-.8 2.5-.8 0-1.4-1.1-1.4-2.5s.4-2.5.9-2.5 1.1 1.1 1.3 2.5zm4.8-.5c0 .5-.4 1-1 1-.5 0-1-.5-1-1 0-.6.5-1 1-1 .6 0 1 .4 1 1zm41 14c0 1 1.1 2.5 2.5 3.4 1.4.9 2.5 1.2 2.5.7s-.4-1.3-1-1.6c-.5-.3-1-1.1-1-1.7 0-.7.5-.6 1.4.1.9.8 1.6.8 2 .2.4-.6 1.6-.4 3.3.4 1.5.8 3 1.2 3.5.9.4-.3.8.8.8 2.5 0 3.5-2.7 6.8-4.3 5.2-1.7-1.7-2.6-1.3-2 1.1.4 1.9.2 1.9-1-.4-2.8-5-2.8-5-4.3-3.7-2.3 1.9-4.9-1.7-5.1-6.9-.1-3.6.1-4.1 1.3-3.1.8.6 1.4 1.9 1.4 2.9zm105.4 13.5c-.4.8-.2 1.5.2 1.5.5 0 .7 2.5.6 5.5-.2 3-.8 5.3-1.3 4.9-.5-.3-.9.2-.9 1 0 .9.5 1.6 1 1.6.6 0 1 .7 1 1.5s-.4 1.5-1 1.5c-.5 0-.9.3-.8.7.3 1.3-3.1 7.1-4.4 7.6-1 .4-1 .7-.1 1.8.9.9 1 1.6.2 2.6-.8.9-.8 1.3 0 1.3.6 0 1.1.4 1.1 1 0 .5-.7.7-1.5.4-1.1-.4-1.5 0-1.5 1.6s.4 2 1.5 1.6c.8-.3 1.5-.1 1.5.4 0 .6-.4 1-1 1-.5 0-1 .6-1 1.4 0 .8-.9 1.7-2 2.1-1.3.4-2.2 1.9-2.6 4.3-.3 2-1.3 4.7-2.1 6-.7 1.2-1.1 2.7-.8 3.2.3.5-.1 1.2-.8 1.7-.8.4-2 2.5-2.6 4.5-1.1 3.3-6.3 11-9.9 14.8-.8.8-2.1 2.9-2.9 4.8-.7 1.8-1.8 3-2.2 2.7-1-.5-5.1 5.8-5.1 7.8 0 1.5-7.6 9.7-9 9.7-.5 0-1 .4-1 .8 0 .5-.6.9-1.2 1-.7.1-3.5.6-6.3 1.2-9.9 2.1-34.9.5-46.3-3.1-12.6-3.9-22.3-8.8-27.3-13.9-3.8-3.7-8.3-16.5-6.8-19.2.7-1.2 1.7-1.7 2.6-1.3.9.3 2 0 2.5-.7.6-1 .8-.8.8.4 0 1.1.8 1.8 1.8 1.8s2.8.7 4 1.6c1.2.8 2.6 1.3 3.1 1 .5-.4 1.2 0 1.5.6.5 1 .7 1 1.2 0 .8-1.7 2.4-1.5 2.4.4 0 1.2 1 1.5 5.3 1.3 2.9-.1 6.4.3 8 1.1 2.1 1 3 1.1 3.5.2.5-.7 1.3-.8 2.2-.2 2.1 1.3 5 1.2 8-.3 2.2-1.2 2.7-1 4.5 1.2l2 2.5 1-3.9c.9-3.2 1.6-3.9 3.8-3.9 1.7-.1 2.7.3 2.7 1.3 0 1.7 1.5.5 1.5-1.2 0-.7.8-1.1 1.8-.9 1 .2 1.7-.3 1.7-1.3 0-2 1-1.9 2.5.2 1.1 1.5 1.5 1.5 2.9.4 1.3-1.1 1.9-1.1 3.3 0 1.5 1.2 1.6 1.2 1-.4-.5-1.4.1-2.1 2.9-3.3 1.9-.8 3.7-2.1 4-2.9.8-1.9 3.4-2.7 4.9-1.5.9.8 1.4.6 1.9-.5.3-.8 1.2-1.5 2-1.5 2.3 0 6.5-4.6 5.6-6.1-.5-.7-.2-1.8.6-2.6s1.4-2.5 1.4-3.9c0-1.5.6-2.4 1.6-2.4s1.4.6 1.1 1.4c-.3.8 0 2 .8 2.6 1.1.9 1.6.7 2.5-1 .6-1.2.9-2.9.6-3.7-.5-1.3-.4-1.4.9-.3 1.3 1.1 1.8 1 3-.6.9-1.2 1.4-1.4 1.5-.6 0 .9.5 1 1.7.4 1.8-1 2.7-4.2 1.2-4.2-.5 0-.9.8-.9 1.7 0 1.5-.2 1.6-1 .3-.5-.8-1-1.1-1-.6 0 .6-.5.5-1.1-.1-1.4-1.4 2.7-7.4 4.6-6.7.7.3 1.6.1 1.9-.4.3-.5 1.7-.7 3.2-.4 2.3.4 2.5.2 2.3-2.4-.4-5.5 0-6.3 3.5-6.9 2.2-.5 3.7-1.5 4.5-3.1.9-2 .8-2.4-.7-2.4-3.8 0-4.5-1.5-2.7-5.3 1.8-3.8 5.5-4.8 5.5-1.5 0 1 .5 1.8 1.1 1.8.7 0 .9-1.2.5-3.4-.7-3.8.1-8.6 1.5-8.6.5 0 .6.7.3 1.5zm-212.6 8.7c-.3 2.5 1 1.9-28.8 12.8-10.2 3.8-24.1 9-31 11.5-13.7 5.2-18.7 6.5-17.6 4.6 2-3.1 29.8-15.1 62.1-26.7 14.1-5 15.8-5.3 15.3-2.2zM288 385c0 .5-.5 1-1.1 1-.5 0-.7-.5-.4-1 .3-.6.8-1 1.1-1 .2 0 .4.4.4 1z"/><path d="M181.2 173.9c.4 1.3 1.8 1.6 1.9.4 0-.4-.5-.9-1.1-1.2-.7-.2-1.1.2-.8.8zM215.4 184.9c-1.8 1.1-4.4 2.1-6 2.3-3.6.4-4.5 2.8-1 2.8 1.4 0 2.6-.5 2.6-1 0-.6.5-1 1.2-1 1.3 0 9.8-4 9.8-4.6 0-1.1-3.8-.2-6.6 1.5zM203.5 190c.3.5.8 1 1.1 1 .2 0 .4-.5.4-1 0-.6-.5-1-1.1-1-.5 0-.7.4-.4 1zM197 191.1c0 .5.5.7 1 .4.6-.3 1-.8 1-1.1 0-.2-.4-.4-1-.4-.5 0-1 .5-1 1.1zM299.6 261.9c-.4.7-.5 1.5-.2 1.8.9.9 1.9-.4 1.4-1.8-.4-1.1-.6-1.1-1.2 0zM298.6 268.5c.4.8.8 1.5 1 1.5.2 0 .4-.7.4-1.5s-.4-1.5-1-1.5c-.5 0-.7.7-.4 1.5zM256.5 278c-.3.5-.1 1 .4 1 .6 0 1.1-.5 1.1-1 0-.6-.2-1-.4-1-.3 0-.8.4-1.1 1zM196.1 307.6c0 1.1.3 1.4.6.6.3-.7.2-1.6-.1-1.9-.3-.4-.6.2-.5 1.3zM330.2 407c0 1.4.2 1.9.5 1.2.2-.6.2-1.8 0-2.5-.3-.6-.5-.1-.5 1.3zM335 407.5c0 .8.5 1.5 1 1.5.6 0 1-.7 1-1.5s-.4-1.5-1-1.5c-.5 0-1 .7-1 1.5zM333.1 411.4c-1 1.2-.8 1.6.9 2.1 2.8.9 3.8-.2 1.9-2.1-1.4-1.3-1.7-1.3-2.8 0zM320.7 419.6c-.4.4-.7 1.7-.7 2.8.1 1.9.1 2 1.1.3 1.1-1.9.8-4.3-.4-3.1zM290.5 441c-.3.5.3 1 1.5 1s1.8-.5 1.5-1c-.3-.6-1-1-1.5-1s-1.2.4-1.5 1zM280.6 441.9c-.4.7-.5 1.5-.2 1.8.9.9 1.9-.4 1.4-1.8-.4-1.1-.6-1.1-1.2 0zM248.5 465c-.9 1.5.3 3 2.4 3 2.5 0 3.3-1.1 2-2.7-1.3-1.5-3.5-1.7-4.4-.3zM1.2 89.7c-.7.7-1.2 2.6-1 4.1.3 2.4.6 2.6 2.3 1.7 1.8-.9 1.9-1.4 1-4.1-.9-2.6-1.2-2.9-2.3-1.7zM5 90c0 .5.5 1 1.1 1 .5 0 .7-.5.4-1-.3-.6-.8-1-1.1-1-.2 0-.4.4-.4 1zM11 89.8c-1.9.7-3.9 3.3-4 5.1 0 1.1.3 1.2 1.1.4.9-.9 1.6-.9 3 0 2.5 1.5 3.4.3 2.3-3.1-.6-2-1.4-2.7-2.4-2.4zM30 90c0 .5.5 1 1 1 .6 0 1-.5 1-1 0-.6-.4-1-1-1-.5 0-1 .4-1 1zM32.2 95c0 1.4.2 1.9.5 1.2.2-.6.2-1.8 0-2.5-.3-.6-.5-.1-.5 1.3zM64 97.6c0 .8.5 1.2 1 .9.6-.3 1-1 1-1.6 0-.5-.4-.9-1-.9-.5 0-1 .7-1 1.6zM1.7 99.7c-1.3.3-1.6 1-1.1 2.6.3 1.2 1 2.6 1.5 3.1 1.4 1.5 1.1 2.6-.8 2.7-1.1 0-1.3.3-.5.6.6.2 1.2 1.2 1.2 2.1 0 1.4-.2 1.4-.9.3-.5-.8-.9 1.7-.9 6.8 0 4.4.2 8.1.5 8.1s1.2-.8 1.9-1.8c1.2-1.6 1.3-1.5 1.4.5 0 1.3.5 2.3 1 2.3.6 0 1-1.2 1-2.6 0-1.4.4-2.3 1-1.9.6.3 1-.1 1-.9s.7-1.9 1.7-2.4c1.2-.7 1.5-1.8 1-4.6-.5-3.3-.4-3.6 1.2-3.1 1.3.4 2-.1 2.4-1.5.6-2.3-.3-2.6-2.2-.8-1.1 1.1-1.3 1-.8-.5.4-.9.2-1.7-.4-1.7-.6 0-.9-.7-.6-1.5.4-.8.2-1.7-.3-2-.5-.3-1.2.6-1.6 2-.6 2.6-1.8 3.2-2.9 1.6-.3-.6.2-1.4 1.1-1.9 2.1-1.2.8-3.5-1.6-2.9-1.3.3-1.6 0-1.3-1.4.3-1.1.4-1.8.2-1.8-.2.1-1.2.3-2.2.6zm1.8 16.2c.3.5.1 1.2-.5 1.6-.5.3-1-.1-1-.9 0-1.8.6-2.1 1.5-.7zm5.5.1c0 .5-.4 1-1 1-.5 0-1-.5-1-1 0-.6.5-1 1-1 .6 0 1 .4 1 1zM29.5 102c-.8 1.3.3 3 2.1 3s1.8-1.4 0-2.9c-1-.8-1.6-.9-2.1-.1zM43.5 102.7c-2.9.8-3.6 2.5-1.7 4 2.3 1.7 4.2 1.6 4.2-.3 0-1.1.5-1.4 1.6-1 1.2.5 1.5.2 1-1-.3-.8-.6-1.8-.6-2 0-.5-1.7-.4-4.5.3zM103 105.1c0 .5.5.7 1 .4.6-.3 1-.8 1-1.1 0-.2-.4-.4-1-.4-.5 0-1 .5-1 1.1zM27 106c0 .5.6 1 1.3 1 .9 0 .9.3-.1.9-2.2 1.4-1 4.6 1.7 4.3 1.9-.2 2.1.1 1.6 2-.4 1.3-.8 2.7-.9 3.3 0 .5-.5 1.3-1.1 1.7-.6.5-.5 1.2.3 2 .6.6 1.2 2 1.2 2.9 0 1.1 1.1 1.9 3.1 2.3 4.5.9 5.2.8 4.6-.8-.3-.7-.1-1.8.5-2.4.8-.8.6-1.9-.8-3.9-1-1.5-1.9-3-2-3.3 0-.3-.6-1.8-1.2-3.3-.7-1.6-1.2-3.2-1.2-3.7s-1.4-1.6-3.2-2.4c-3.7-1.9-3.8-1.9-3.8-.6zM53.5 110c-.3.5-.1 1 .4 1 .6 0 1.1-.5 1.1-1 0-.6-.2-1-.4-1-.3 0-.8.4-1.1 1zM39 114.1c0 1.5.5 1.9 1.9 1.4 1.3-.4 2 0 2.4 1.5.3 1.1 1 2 1.6 2 1 0 1.2-.6 1.5-4.3.1-.7-.8-1.1-2.1-.9-1.2.2-2.4-.2-2.8-.8-1.1-1.7-2.5-1.1-2.5 1.1zM58 118.8c0 2 .3 2.2 1.4 1.3 1.1-.9 1.5-.9 1.8 0 .5 1.6 2.8.3 2.8-1.5 0-.8-1.3-1.6-3-1.8-2.6-.4-3-.2-3 2zM80 119.1c0 1.7.4 2.8 1 2.4.6-.3 1-1.7 1-3.1 0-1.3-.4-2.4-1-2.4-.5 0-1 1.4-1 3.1zM70 118.1c0 .5.5.7 1 .4.6-.3 1-.8 1-1.1 0-.2-.4-.4-1-.4-.5 0-1 .5-1 1.1zM15 118.9c0 .5.5 1.3 1 1.6.6.3 1 .2 1-.4 0-.5-.4-1.3-1-1.6-.5-.3-1-.2-1 .4zM12.2 120.2c-1.4 1.4-1.6 4.4-.3 5.2.4.3 1.5 0 2.3-.7 1.2-1 1.3-1.6.3-3.4-.9-1.7-1.4-2-2.3-1.1zM73 120.6c0 .8.5 1.2 1 .9.6-.3 1-1 1-1.6 0-.5-.4-.9-1-.9-.5 0-1 .7-1 1.6zM76.5 120.9c-.3.5-.1 1.2.5 1.6.5.3 1-.1 1-.9 0-1.8-.6-2.1-1.5-.7zM52 123.4c0 .4.7 1.4 1.5 2.2.8.9 1.5 1.1 1.5.6 0-.5-.7-1.5-1.5-2.2-.8-.7-1.5-.9-1.5-.6zM79.7 123.7c-.4.3-.7 1.1-.7 1.7 0 .6.5.5 1.2-.2.6-.6.9-1.4.7-1.7-.3-.3-.9-.2-1.2.2zM2.5 129c-.3.5-.1 1 .4 1 .6 0 1.1 1.1 1.1 2.5 0 2.6.7 3 2.8 1.6 1-.6 1-1-.3-2.1-.8-.7-1.5-1.9-1.5-2.6 0-1.6-1.6-1.9-2.5-.4zM103.1 130.6c0 1.1.3 1.4.6.6.3-.7.2-1.6-.1-1.9-.3-.4-.6.2-.5 1.3zM107 130c0 .5.5 1 1.1 1 .5 0 .7-.5.4-1-.3-.6-.8-1-1.1-1-.2 0-.4.4-.4 1zM34.2 132.7c-.5 1-.7 3.4-.5 5.5.2 2-.1 3.9-.6 4.3-.6.3-1.1 1.8-1 3.3 0 1.5.3 2.1.6 1.4.8-2.1 2.5-1.3 1.8.8-.6 1.8-.3 2 1.9 1.6 1.4-.3 2.8 0 3.2.5.3.5 1 .7 1.5.4 1.1-.8 1.1-.7 0 3.3-.8 2.6-.7 3.2.5 3.2.8 0 2-1.1 2.6-2.5 1.3-2.8 3.9-3.2 6.2-1 1.9 1.9 2.6 1.9 2.6-.1 0-.8.4-1.3.9-.9 1.7 1 2.1-1.2.6-3.1-1.3-1.6-1.6-1.7-2.5-.4-.9 1.3-1.1 1.3-2 0-1.3-2-1.3-5.3 0-4.5.6.3 1-.3 1-1.4 0-2.2-2.7-4.1-5.9-4.1-1.1 0-2.4-.7-2.9-1.6-.6-1-1.2-1.2-1.6-.6-.3.5.1 1.5.9 2.2 2.2 1.8 1.8 3.7-.7 4.3-3 .8-3.1.5-1.9-3.8 1.6-6-2.3-11.6-4.7-6.8zm2.3 8.2c.3.5.1 1.2-.5 1.6-.5.3-1-.1-1-.9 0-1.8.6-2.1 1.5-.7zM115 131.9c0 .6.5 1.3 1 1.6.6.3 1-.1 1-.9 0-.9-.4-1.6-1-1.6-.5 0-1 .4-1 .9zM71.8 132.6c-.4.5 0 1.8.8 2.9 1.5 2 1.7 1.2.5-1.9-.4-1.1-1-1.5-1.3-1zM100.8 136c-1.6 2.9-1.6 3 .5 4.5 1.6 1.1 2.3 1.2 2.6.3.2-.7 0-1.3-.6-1.5-.5-.2-.7-1.7-.5-3.3.5-3.8.1-3.8-2 0zM66.2 138c-1 1.7-1 2 .3 2 .8 0 1.5-.5 1.5-1.1 0-.5.5-.7 1-.4.6.3 1-.1 1-.9 0-2.2-2.3-2-3.8.4zM155.6 139.8c-.2.4-.1 1.4.5 2.2.7 1.2.9 1 .9-.8 0-2.3-.5-2.8-1.4-1.4zM62 141.5c0 2-2.8 5-3.8 4-.4-.4-.1-1 .6-1.2 2.2-.8 1.2-2-1.8-2-3.1 0-4 1.1-1.7 2 .9.4.9.6 0 .6-.7.1-1 .8-.7 1.6.4.8 1 1.2 1.6.9.5-.3 1.2.3 1.5 1.5.3 1.2 1.3 2.1 2.4 2.1 1.1 0 2 .4 2 1 .1.5.2 1.5.3 2.2 0 .7 1.5 1.5 3.2 1.9 3.1.6 3.2.6 2.2-2.2-.5-1.6-1.4-3.2-1.9-3.5-1.4-.8-1.1-2.4.4-1.8.8.3 2-.2 2.7-1.1.7-.8 1.9-1.5 2.6-1.5 1.2 0 1.2-.4.2-1.9-.7-1.1-1.6-1.7-2.1-1.4-.5.3-.4.9.3 1.3 1.7 1-.2 2.1-4.5 2.5-2.9.2-3.2.1-2-1.1.7-.8 1.9-1.4 2.5-1.4 1.5 0 .3-1.7-2.1-3-1.5-.9-1.9-.7-1.9.5zM81.4 143.4c-.4 1-.2 2.2.4 2.8.8.8 1.3.7 1.8-.6.4-1 .2-2.2-.4-2.8-.8-.8-1.3-.7-1.8.6zM110.5 143c.3.5.8 1 1.1 1 .2 0 .4-.5.4-1 0-.6-.5-1-1.1-1-.5 0-.7.4-.4 1zM0 146.3c.1 2.7.2 2.9 1.1 1.4.6-.9 1.4-1.5 2-1.2.5.3.6-.1.3-.9s-1.2-1.7-2-2c-1-.4-1.4.3-1.4 2.7zM98.8 147.6c-.8 1.3.2 6.4 1.3 6.4s1.1-2.7 0-5.4c-.4-1.1-1-1.5-1.3-1zM73 149c0 .5.5 1 1.1 1 .5 0 .7-.5.4-1-.3-.6-.8-1-1.1-1-.2 0-.4.4-.4 1zM91.5 149.9c-.3.5-.1 1.2.5 1.6.5.3 1-.1 1-.9 0-1.8-.6-2.1-1.5-.7zM54.7 153.7c-1.2 1.1-.8 2.1 1.2 2.6 1.4.3 1.7 0 1.4-1.4-.5-2-1.5-2.4-2.6-1.2zM71 153.8c0 .5.7.9 1.5.9s1.2-.4.9-.9c-.3-.4-.9-.8-1.5-.8-.5 0-.9.4-.9.8zM42.8 158.4c-2 1.5-1.4 2.6 1.4 2.6 1.1 0 1.8-.7 1.8-2 0-2.3-.8-2.5-3.2-.6zM17 159c0 .5.7 1 1.6 1 .8 0 1.2-.5.9-1-.3-.6-1-1-1.6-1-.5 0-.9.4-.9 1zM99.5 160c-.7 1.2.2 3 1.6 3 1.2 0 1.2-2.7 0-3.5-.5-.3-1.2-.1-1.6.5zM113.1 162.9c-.8.6-.9 1.1-.3 1.5.6.3 1.4.1 1.7-.5.9-1.4.2-2-1.4-1zM53.6 165.1c2.1 2.3 2.6 2.4 2.2.2-.2-.9-1.1-1.7-2.1-1.9-1.8-.2-1.8-.2-.1 1.7zM126 163.9c0 .5.5 1.3 1 1.6.6.3 1 .2 1-.4 0-.5-.4-1.3-1-1.6-.5-.3-1-.2-1 .4zM116.5 166c-1.4.6-1.5.9-.5 1 1 .1.9.4-.5 1-1.7.7-1.7.9-.2.9 1 .1 1.7.9 1.7 2 0 1 .7 2.1 1.5 2.5.8.3 1.5 1.2 1.5 2.1 0 1.8 1.9 2.1 2.1.2.5-4.1.7-5.4 1.3-7.5.4-1.2.3-2.2-.2-2.2-.6 0-1.2.5-1.4 1.1-.2.5-1.1.7-2.1.4-.9-.4-1.4-1.1-1.1-1.6.6-1 .6-1-2.1.1zM128.2 169.5c0 1.6.2 2.2.5 1.2.2-.9.2-2.3 0-3-.3-.6-.5.1-.5 1.8zM103.7 170.4c-.7 1.7 1.7 5.3 2.6 3.9.8-1.2-.3-5.3-1.3-5.3-.4 0-1 .6-1.3 1.4zM99.2 171.4c.1 1 .8 1.7 1.3 1.7 1.5-.1 1.2-2.4-.3-2.9-.9-.3-1.3.2-1 1.2zM81.1 172.9c-.8.5-2.1.6-3 .3-1.4-.5-1.4-.4.1 1.1.9.9 2.3 1.7 3.2 1.7.8 0 1.7.4 2.1.9.8 1.4 4.5.9 4.5-.5 0-.7.6-1.5 1.3-1.7.6-.3.2-.6-1-.6-1.2-.1-2.5-.6-2.8-1.1-.8-1.2-2.5-1.3-4.4-.1zM112 173c0 .5-.7 1-1.5 1-1.6 0-2 1.2-.7 2.4.4.4.7 1.7.7 2.9 0 1.1.5 2.2 1.1 2.4.7.2 1.2-1.4 1.3-4.7 0-2.7-.2-5-.4-5-.3 0-.5.4-.5 1zM48 174.6c0 .8.5 1.2 1 .9.6-.3 1-1 1-1.6 0-.5-.4-.9-1-.9-.5 0-1 .7-1 1.6zM93.6 178.7c.9 3.9 1.2 4.2 3.2 3.9.9-.2 2.2.4 2.9 1.3.6.9 1.5 1.2 2 .7.4-.5.2-1.1-.4-1.3-.7-.3-1.3-1.6-1.3-2.9 0-1.7-.6-2.4-1.9-2.4-1.1 0-2.3-.5-2.6-1-1.3-2.1-2.5-.9-1.9 1.7zM116.1 179.6c0 1.1.3 1.4.6.6.3-.7.2-1.6-.1-1.9-.3-.4-.6.2-.5 1.3zM129 181c0 .5.5 1 1.1 1 .5 0 .7-.5.4-1-.3-.6-.8-1-1.1-1-.2 0-.4.4-.4 1zM119 189c0 .5.5 1 1.1 1 .5 0 .7-.5.4-1-.3-.6-.8-1-1.1-1-.2 0-.4.4-.4 1zM429.7 249.4c-.3.8-.2 1.8.3 2.1 1.3.8 2-.9 1.1-2.4-.6-1-1-.9-1.4.3zM400.3 249.7c-2.1.8-1.5 2 1.1 2.5 1.5.3 2.7 0 3-.8.8-2.1-1.1-3-4.1-1.7zM413.8 254c.2 1.6.6 3 .8 3 .2 0 .4-1.4.4-3 0-1.7-.4-3-.8-3-.5 0-.7 1.3-.4 3zM398.1 254.2c0 1-.5 1.8-1.1 1.8-.5 0-1 .8-1 1.7 0 1.6.1 1.6 1.6.1.9-.8 1.4-2.4 1.1-3.4-.4-1.7-.5-1.7-.6-.2zM417 253.9c0 .6.5 1.3 1 1.6.6.3 1-.1 1-.9 0-.9-.4-1.6-1-1.6-.5 0-1 .4-1 .9zM404.3 256.7c-1.5.5-1.7 3.9-.4 4.8 1.3.7 3.5-3.5 2.4-4.5-.4-.4-1.4-.5-2-.3zM415 261c.7 1.4.7 2 0 2-.5 0-1 1-1 2.2 0 2.2.1 2.1 2.5-.7 2.8-3.5 3.1-4.7 1-3.9-.8.4-1.5.1-1.5-.5s-.5-1.1-1-1.1c-.7 0-.7.6 0 2zM426 262.4c.6.8 1.8 1.2 2.6.9.8-.3 1.4.1 1.4.8 0 .7.2 1 .5.7 1.3-1.2-.9-3.8-3.2-3.8-2.1 0-2.3.3-1.3 1.4zM406.5 264c.3.5.8 1 1.1 1 .2 0 .4-.5.4-1 0-.6-.5-1-1.1-1-.5 0-.7.4-.4 1zM466.2 277c0 1.4.2 1.9.5 1.2.2-.6.2-1.8 0-2.5-.3-.6-.5-.1-.5 1.3zM483 291c0 1.1.5 2 1 2 .6 0 1-.9 1-2s-.4-2-1-2c-.5 0-1 .9-1 2zM489 291.9c0 .6.5 1.3 1 1.6.6.3 1-.1 1-.9 0-.9-.4-1.6-1-1.6-.5 0-1 .4-1 .9zM496.5 295c-.3.5-.1 1 .4 1 .6 0 1.1-.5 1.1-1 0-.6-.2-1-.4-1-.3 0-.8.4-1.1 1zM490.1 296.9l-2.4.7 2.9 1.9 2.9 1.9-2.4.6c-3.4.8-4 3-.7 2.8 2.4-.2 3-1.1 2.9-4.5-.1-.7.4-1 1.1-.6.6.4 2.8.8 4.8.9 3 .2 3.8-.2 3.8-1.5 0-2-3-2.2-5.2-.3-1.1.9-1.7.7-2.8-.8-.8-1.1-1.7-2-2-1.9-.3.1-1.6.4-2.9.8z"/></svg>